<?xml version="1.0" encoding="UTF-8" standalone="no"?>
<svg
   xmlns:dc="http://purl.org/dc/elements/1.1/"
   xmlns:cc="http://creativecommons.org/ns#"
   xmlns:rdf="http://www.w3.org/1999/02/22-rdf-syntax-ns#"
   xmlns:svg="http://www.w3.org/2000/svg"
   xmlns="http://www.w3.org/2000/svg"
   xmlns:sodipodi="http://sodipodi.sourceforge.net/DTD/sodipodi-0.dtd"
   xmlns:inkscape="http://www.inkscape.org/namespaces/inkscape"
   version="1.1"
   id="svg4"
   sodipodi:docname="icons.svg"
   inkscape:version="1.0.2 (e86c870879, 2021-01-15)"
   width="500px"
   height="500px">
  <metadata
     id="metadata10">
    <rdf:RDF>
      <cc:Work
         rdf:about="">
        <dc:format>image/svg+xml</dc:format>
        <dc:type
           rdf:resource="http://purl.org/dc/dcmitype/StillImage" />
        <dc:title></dc:title>
      </cc:Work>
    </rdf:RDF>
  </metadata>
  <defs
     id="defs8" />
  <sodipodi:namedview
     pagecolor="#ffffff"
     bordercolor="#666666"
     borderopacity="1"
     objecttolerance="10"
     gridtolerance="10"
     guidetolerance="10"
     inkscape:pageopacity="0"
     inkscape:pageshadow="2"
     inkscape:window-width="1368"
     inkscape:window-height="702"
     id="namedview6"
     showgrid="false"
     inkscape:zoom="0.38393689"
     inkscape:cx="-253.4419"
     inkscape:cy="-80.0709"
     inkscape:window-x="0"
     inkscape:window-y="0"
     inkscape:window-maximized="1"
     inkscape:current-layer="svg4" />
  <g
     id="g124"
     transform="matrix(0.42559013,0,0,0.42559013,227.11071,168.75133)">
    <path
       id="path2"
       d="M 80.552734,-172.97461 C 68.867915,-172.93395 56.998466,-162.46809 56,-141.69922 v 442 c -23.9,-11.5 -53.1007816,-14.30039 -81.300781,-16.90039 -35.9,-3.3 -69.799219,-6.50117 -85.199219,-25.70117 -6.8,-8.4 -10.4,-20.79844 -11,-36.89844 0.94201,-36.23938 -47.50947,-40.8404 -48.09961,-0.90039 0.5,28.1 7.59961,50.50039 21.59961,67.90039 28.2,35 75.999219,39.49844 118.199219,43.39844 25.6999996,2.4 49.901562,4.60078 66.101562,12.80078 7.065515,3.58251 11.749181,8.15724 14.84961,13.32617 v 64.08008 h -31.4375 c -14.5943847,0 -21.9035279,17.64462 -11.5839848,27.96484 l 58.7402348,58.74024 c 6.397588,6.39756 16.76843,6.39756 23.166015,0 l 58.740234,-58.74024 c 10.32023,-10.31954 3.01236,-27.96484 -11.58203,-27.96484 h -31.43945 v -28.08984 c 1.70698,-10.23593 2.8099,-22.22388 3.0957,-35.99024 3.10043,-5.16893 7.78409,-9.74366 14.84961,-13.32617 16.2,-8.2 40.40156,-10.40078 66.10156,-12.80078 42.2,-3.9 89.99922,-8.39844 118.19922,-43.39844 14,-17.4 21.09961,-155.80039 21.59961,-183.90039 -3.25491,-33.677501 -47.20156,-29.626382 -48.09961,0.90039 -0.6,16.1 -4.2,144.49844 -11,152.89844 -15.4,19.2 -49.29922,22.40117 -85.19922,25.70117 -28.2,2.6 -57.40078,5.40039 -81.30078,16.90039 v -442 c -0.26226,-20.9315 -11.762446,-31.31605 -23.447266,-31.27539 z" />
    <path
       d="m 12.820885,674.94178 c -1.006989,0 -2.013978,0.14752 -2.97462,0.45929 -5.460494,1.7738 -11.2032753,2.9114 -17.2494247,2.9114 -6.0461473,0 -11.7889283,-1.1376 -17.2536373,-2.9114 -0.960638,-0.31177 -1.963414,-0.45929 -2.970408,-0.45929 -26.147987,0 -47.328461,21.26898 -47.189434,47.45071 0.05892,11.06422 9.155599,19.96278 20.224046,19.96278 h 94.378868 c 11.06845,0 20.165056,-8.89856 20.224087,-19.96278 0.138994,-26.18173 -21.041474,-47.45071 -47.189477,-47.45071 z M -7.4031597,661.45909 c 22.3391407,0 40.4480877,-18.10895 40.4480877,-40.44806 0,-22.33917 -18.108947,-40.4481 -40.4480877,-40.4481 -22.3391483,0 -40.4480763,18.10893 -40.4480763,40.4481 0,22.33911 18.108928,40.44806 40.4480763,40.44806 z M 174.61323,526.63217 H 12.820885 c -11.152716,0 -20.2240447,9.37472 -20.2240447,20.89395 v 19.55414 c 9.8676537,0 19.0021767,2.85664 26.9653907,7.49973 V 553.59753 H 167.87187 V 674.94178 H 140.90644 V 647.97641 H 86.975734 v 26.96537 H 54.853185 c 8.047519,7.03211 13.95457,16.31832 16.722768,26.9654 H 174.61323 c 11.15274,0 20.22405,-9.3747 20.22405,-20.89392 V 547.52612 c 0,-11.51923 -9.07131,-20.89395 -20.22405,-20.89395 z"
       id="path2-6"
       style="stroke-width:0.421336" />
    <path
       d="m -217.82674,138.45678 c -1.00699,0 -2.01398,0.14752 -2.97462,0.45929 -5.46049,1.7738 -11.20327,2.9114 -17.24942,2.9114 -6.04615,0 -11.78893,-1.1376 -17.25364,-2.9114 -0.96064,-0.31177 -1.96341,-0.45929 -2.97041,-0.45929 -26.14799,0 -47.32846,21.26898 -47.18944,47.45071 0.0589,11.06422 9.1556,19.96278 20.22405,19.96278 h 94.37887 c 11.06845,0 20.16506,-8.89856 20.22409,-19.96278 0.13899,-26.18173 -21.04148,-47.45071 -47.18948,-47.45071 z m -20.22404,-13.48269 c 22.33914,0 40.44808,-18.10895 40.44808,-40.448064 0,-22.33917 -18.10894,-40.4481 -40.44808,-40.4481 -22.33915,0 -40.44808,18.10893 -40.44808,40.4481 0,22.339114 18.10893,40.448064 40.44808,40.448064 z M -56.034396,-9.8528342 H -217.82674 c -11.15271,0 -20.22404,9.37472002 -20.22404,20.8939502 v 19.55414 c 9.86765,0 19.00217,2.85664 26.96539,7.49973 V 17.112526 H -62.775756 V 138.45678 H -89.74119 v -26.96537 h -53.9307 v 26.96537 h -32.12255 c 8.04752,7.03211 13.95457,16.31832 16.72277,26.9654 h 103.037274 c 11.15274,0 20.22405,-9.3747 20.22405,-20.89392 V 11.041116 c 0,-11.51923018 -9.07131,-20.8939502 -20.22405,-20.8939502 z"
       id="path2-6-7"
       style="stroke-width:0.421336" />
    <path
       d="m 231.01341,43.604759 c -1.00698,0 -2.01397,0.14752 -2.97462,0.45929 -5.46049,1.7738 -11.20327,2.9114 -17.24942,2.9114 -6.04615,0 -11.78893,-1.1376 -17.25364,-2.9114 -0.96063,-0.31177 -1.96341,-0.45929 -2.9704,-0.45929 -26.14799,0 -47.32847,21.26898 -47.18944,47.45071 0.0589,11.064221 9.1556,19.962781 20.22405,19.962781 h 94.37886 c 11.06845,0 20.16506,-8.89856 20.22409,-19.962781 0.139,-26.18173 -21.04147,-47.45071 -47.18948,-47.45071 z m -20.22404,-13.48269 c 22.33914,0 40.44809,-18.10895 40.44809,-40.44806 0,-22.33917 -18.10895,-40.4481 -40.44809,-40.4481 -22.33915,0 -40.44808,18.10893 -40.44808,40.4481 0,22.33911 18.10893,40.44806 40.44808,40.44806 z M 392.80575,-104.70485 H 231.01341 c -11.15271,0 -20.22404,9.374719 -20.22404,20.893949 v 19.55414 c 9.86765,0 19.00218,2.85664 26.96539,7.49973 v -20.98246 h 148.30963 v 121.34425 h -26.96543 v -26.96537 h -53.9307 v 26.96537 h -32.12255 c 8.04752,7.03211 13.95457,16.31832 16.72277,26.9654 h 103.03727 c 11.15274,0 20.22405,-9.3747 20.22405,-20.89392 v -133.48714 c 0,-11.51923 -9.07131,-20.893949 -20.22405,-20.893949 z"
       id="path2-6-5"
       style="stroke-width:0.421336" />
    <path
       d="m 5.4741984,-212.22898 c -1.00699,0 -2.01398,0.14752 -2.97462,0.45929 -5.46049,1.7738 -11.20327,2.9114 -17.2494204,2.9114 -6.04615,0 -11.78893,-1.1376 -17.25364,-2.9114 -0.96064,-0.31177 -1.96341,-0.45929 -2.97041,-0.45929 -26.14799,0 -47.32846,21.26898 -47.18944,47.45071 0.0589,11.06422 9.1556,19.96278 20.22405,19.96278 h 94.37887 c 11.068454,0 20.165064,-8.89856 20.224094,-19.96278 0.13899,-26.18173 -21.041484,-47.45071 -47.1894836,-47.45071 z m -20.2240404,-13.48269 c 22.3391404,0 40.44808,-18.10895 40.44808,-40.44807 0,-22.33916 -18.1089396,-40.44809 -40.44808,-40.44809 -22.33915,0 -40.44808,18.10893 -40.44808,40.44809 0,22.33912 18.10893,40.44807 40.44808,40.44807 z M 167.26655,-360.53859 H 5.4741984 c -11.15271,0 -20.2240404,9.37472 -20.2240404,20.89395 v 19.55414 c 9.8676504,0 19.0021704,2.85664 26.96539,7.49973 v -20.98246 H 160.52519 v 121.34425 h -26.96544 v -26.96537 H 79.629052 v 26.96537 h -32.12255 c 8.04752,7.03211 13.95457,16.31832 16.72277,26.9654 H 167.26655 c 11.15274,0 20.22405,-9.3747 20.22405,-20.89392 v -133.48714 c 0,-11.51923 -9.07131,-20.89395 -20.22405,-20.89395 z"
       id="path2-6-7-3"
       style="stroke-width:0.421336" />
  </g>
</svg>
